#!OML:ASF F:\VICON\USERDATA\INSTALL\rory3\rory3.ASF
:FULLY-SPECIFIED
:DEGREES
193
root 0.293971 18.1504 9.94525 -3.19376 -1.87 -3.81082
lowerback 10.087 -0.395087 2.40701
upperback 0.125143 -0.0799352 2.9156
thorax -5.53517 -0.064988 1.70637
lowerneck -16.683 -2.3414 -1.72266
upperneck 22.3739 -2.55516 -1.0282
head 9.8732 -1.454 -0.412163
rclavicle -7.91411e-015 2.38542e-014
rhumerus -37.4219 -31.0643 -68.5742
rradius 18.3554
rwrist 13.8211
rhand -20.0912 21.6653
rfingers 7.12502
rthumb 6.25181 -8.22243
lclavicle -7.91411e-015 2.38542e-014
lhumerus -27.3597 4.98702 79.1873
lradius 29.5451
lwrist 8.17194
lhand -30.3723 24.9354
lfingers 7.12502
lthumb -3.67701 54.8834
rfemur -16.1674 1.548 29.6162
rtibia 27.424
rfoot -7.31793 -4.08055
rtoes 10.779
lfemur -1.91684 1.63003 -17.1217
ltibia 58.357
lfoot 12.7096 -15.0436
ltoes -11.0326
194
root 0.279434 18.1592 10.1215 -3.30514 -1.9969 -4.10959
lowerback 10.1499 -0.332083 2.67484
upperback 0.170205 0.0372967 2.93331
thorax -5.52465 -0.0140595 1.557
lowerneck -16.5846 -2.34521 -1.65517
upperneck 22.4051 -2.59638 -0.968653
head 9.86549 -1.46041 -0.40701
rclavicle -1.13059e-014 -9.93923e-015
rhumerus -36.8526 -30.7746 -69.1248
rradius 18.6251
rwrist 13.687
rhand -19.8789 21.6023
rfingers 7.12502
rthumb 6.45671 -8.2793
lclavicle -1.13059e-014 -9.93923e-015
lhumerus -27.6116 5.03846 79.229
lradius 29.0595
lwrist 8.29862
lhand -30.4273 21.2908
lfingers 7.12502
lthumb -3.7301 51.2379
rfemur -15.3513 1.67059 30.0125
rtibia 27.3499
rfoot -8.70719 -3.84198
rtoes 4.95885
lfemur -3.11292 2.10575 -16.5993
ltibia 59.9477
lfoot 11.6101 -15.2862
ltoes -12.9204
195
root 0.272978 18.1732 10.2938 -3.33447 -1.8856 -4.07656
lowerback 10.0698 -0.35501 2.72437
upperback 0.2558 0.00044315 2.8478
thorax -5.38914 -0.0336419 1.4429
lowerneck -16.5912 -2.36252 -1.66374
upperneck 22.3638 -2.65504 -0.821179
head 9.85436 -1.47077 -0.361539
rclavicle -8.64713e-015 3.18055e-015
rhumerus -36.0864 -30.6801 -69.5422
rradius 18.6036
rwrist 13.8088
rhand -19.0457 22.5212
rfingers 7.12502
rthumb 7.26104 -7.33422
lclavicle -8.64713e-015 3.18055e-015
lhumerus -27.7465 5.24401 79.2721
lradius 28.7877
lwrist 8.05804
lhand -30.3624 20.0147
lfingers 7.12502
lthumb -3.66739 49.9629
rfemur -14.6367 1.58803 29.9648
rtibia 27.3259
rfoot -9.76948 -3.77329
rtoes 3.31242
lfemur -4.561 2.2615 -16.5895
ltibia 61.3327
lfoot 10.2389 -14.2959
ltoes -11.2006
196
root 0.263676 18.1854 10.46 -3.26933 -1.80802 -4.12331
lowerback 10.1356 -0.325705 2.78963
upperback 0.123139 0.0546215 2.82715
thorax -5.56603 -0.0103351 1.37888
lowerneck -16.3038 -2.42414 -1.9016
upperneck 22.4481 -2.73453 -0.61628
head 9.83793 -1.50455 -0.257881
rclavicle -6.21202e-015 3.57812e-014
rhumerus -35.6896 -30.2431 -69.8665
rradius 18.8022
rwrist 13.577
rhand -18.4757 22.7588
rfingers 7.12502
rthumb 7.81124 -7.07688
lclavicle -6.21202e-015 3.57812e-014
lhumerus -28.1731 5.22819 79.4185
lradius 28.5515
lwrist 7.86539
lhand -29.4973 21.4948
lfingers 7.12502
lthumb -2.83197 51.4558
rfemur -14.0712 1.46435 30.0738
rtibia 27.2245
rfoot -9.58224 -3.93716
rtoes 4.50759
lfemur -6.05162 2.37125 -16.4953
ltibia 62.5419
lfoot 8.12037 -12.4394
ltoes -7.20873
197
root 0.250576 18.194 10.6213 -3.22702 -1.93413 -4.37876
lowerback 10.2702 -0.28898 2.90709
upperback 0.0800689 0.130121 2.90183
thorax -5.68771 0.0237067 1.38174
lowerneck -16.4956 -2.37135 -1.84217
upperneck 22.7924 -2.64935 -0.707563
head 9.99405 -1.47137 -0.294304
rclavicle -5.57839e-015 7.95139e-016
rhumerus -35.0106 -29.6088 -70.4648
rradius 18.9642
rwrist 13.1607
rhand -18.7401 22.8997
rfingers 7.12502
rthumb 7.556 -6.94529
lclavicle -5.57839e-015 7.95139e-016
lhumerus -28.5926 5.31405 79.5401
lradius 28.4553
lwrist 8.0337
lhand -27.9967 24.2056
lfingers 7.12502
lthumb -1.38276 54.1808
rfemur -13.4855 1.58575 30.4592
rtibia 27.1397
rfoot -9.3794 -4.13463
rtoes 4.92109
lfemur -7.39736 2.657 -16.1383
ltibia 63.5832
lfoot 6.33836 -10.9872
ltoes -5.33235
198
root 0.242072 18.2 10.7822 -3.25644 -2.12412 -4.68584
lowerback 10.2904 -0.225956 3.21621
upperback 0.208058 0.246576 2.91079
thorax -5.56365 0.0740837 1.19856
lowerneck -16.6516 -2.3525 -1.74618
upperneck 22.8622 -2.65147 -0.684237
head 10.0472 -1.46099 -0.305175
rclavicle 1.03989e-014 5.12864e-014
rhumerus -34.0313 -29.2304 -71.1859
rradius 18.9349
rwrist 12.8028
rhand -19.0254 23.2768
rfingers 7.12502
rthumb 7.28063 -6.57796
lclavicle 1.03989e-014 5.12864e-014
lhumerus -28.8082 5.43796 79.5807
lradius 28.5254
lwrist 8.13777
lhand -27.265 25.5294
lfingers 7.12502
lthumb -0.676033 55.5081
rfemur -12.7618 1.81837 30.8659
rtibia 27.0358
rfoot -9.4744 -4.2847
rtoes 4.01483
lfemur -8.58023 2.96703 -15.7345
ltibia 64.4734
lfoot 5.06305 -9.96755
ltoes -5.76653
199
root 0.228885 18.2024 10.9434 -3.34034 -2.28156 -4.88681
lowerback 10.2893 -0.0936891 3.37538
upperback 0.365856 0.434684 2.92314
thorax -5.3954 0.164915 1.09255
lowerneck -16.7203 -2.415 -1.76449
upperneck 22.8303 -2.76362 -0.559775
head 10.0515 -1.49904 -0.274157
rclavicle -4.96962e-016 3.29983e-014
rhumerus -33.1056 -28.8413 -71.8444
rradius 19.2513
rwrist 12.2472
rhand -18.841 23.0261
rfingers 7.12502
rthumb 7.45862 -6.82237
lclavicle -4.96962e-016 3.29983e-014
lhumerus -28.8267 5.22958 79.811
lradius 28.4292
lwrist 8.26817
lhand -27.5592 26.0083
lfingers 7.12502
lthumb -0.960148 55.9859
rfemur -11.8328 2.29245 31.1496
rtibia 26.8278
rfoot -9.71218 -4.60295
rtoes 5.01909
lfemur -9.72076 3.21823 -15.4429
ltibia 65.1905
lfoot 3.84189 -9.43541
ltoes -6.22108
200
root 0.216201 18.207 11.1022 -3.27108 -2.34125 -5.02783
lowerback 10.3032 -0.0286761 3.39072
upperback 0.38873 0.526032 2.98389
thorax -5.37926 0.210521 1.134
lowerneck -16.8575 -2.44896 -1.77933
upperneck 22.8746 -2.80421 -0.557771
head 10.0939 -1.51845 -0.278813
rclavicle -2.74571e-015 1.23246e-014
rhumerus -32.4002 -27.801 -72.5702
rradius 20.0973
rwrist 11.5747
rhand -18.2326 23.3964
rfingers 7.12502
rthumb 8.04586 -6.43046
lclavicle -2.74571e-015 1.23246e-014
lhumerus -28.98 5.31837 80.0245
lradius 28.2777
lwrist 8.22381
lhand -27.6513 26.6841
lfingers 7.12502
lthumb -1.04917 56.6612
rfemur -11.1468 2.68671 31.3701
rtibia 26.6273
rfoot -10.3735 -4.92873
rtoes 7.62619
lfemur -11.1434 3.3407 -15.2537
ltibia 65.7244
lfoot 2.62356 -8.88233
ltoes -4.67142
201
root 0.209128 18.2189 11.2604 -3.19193 -2.54801 -5.42644
lowerback 10.4744 0.0332725 3.79924
upperback 0.266042 0.674822 3.01779
thorax -5.60042 0.270443 0.91923
lowerneck -16.6486 -2.4432 -1.84822
upperneck 22.8937 -2.82298 -0.397494
head 10.065 -1.51458 -0.210832
rclavicle -5.73991e-015 2.22639e-014
rhumerus -32.052 -26.5785 -73.3171
rradius 20.8862
rwrist 10.5922
rhand -17.6165 24.8039
rfingers 7.12502
rthumb 8.64041 -4.99927
lclavicle -5.73991e-015 2.22639e-014
lhumerus -29.3876 5.32362 80.0379
lradius 27.9716
lwrist 8.1224
lhand -27.3384 26.2666
lfingers 7.12502
lthumb -0.746954 56.245
rfemur -10.6333 2.90795 31.9045
rtibia 26.4778
rfoot -10.2595 -5.18348
rtoes 5.29738
lfemur -12.5117 3.56789 -14.7822
ltibia 66.0662
lfoot 1.12373 -7.94406
ltoes -1.79376
202
root 0.202771 18.2234 11.4147 -3.08373 -2.67433 -5.55004
lowerback 10.5181 0.108906 3.91787
upperback 0.189804 0.795317 3.00245
thorax -5.70246 0.324479 0.818793
lowerneck -16.5241 -2.41659 -1.9682
upperneck 22.9491 -2.79132 -0.25625
head 10.0654 -1.49402 -0.135731
rclavicle -7.45443e-016 -1.55052e-014
rhumerus -31.5582 -25.5123 -73.9819
rradius 21.381
rwrist 9.48582
rhand -17.0797 24.1586
rfingers 7.12502
rthumb 9.15844 -5.62258
lclavicle -7.45443e-016 -1.55052e-014
lhumerus -29.7425 5.40392 80.1186
lradius 27.7805
lwrist 7.95306
lhand -27.5702 25.8583
lfingers 7.12502
lthumb -0.970772 55.8359
rfemur -10.2038 2.92617 32.114
rtibia 26.3922
rfoot -10.4808 -5.31793
rtoes 3.90934
lfemur -13.8432 3.72169 -14.6685
ltibia 66.2223
lfoot -0.367957 -7.29224
ltoes -2.50183
203
root 0.196804 18.2167 11.5747 -3.0459 -2.56909 -5.47054
lowerback 10.4422 0.139917 3.83477
upperback 0.249038 0.815403 2.94163
thorax -5.59689 0.33756 0.798235
lowerneck -16.4192 -2.49628 -1.90737
upperneck 22.6726 -2.89384 -0.361683
head 9.94467 -1.54821 -0.192707
rclavicle -9.19379e-016 3.97569e-014
rhumerus -30.7689 -24.7663 -74.5388
rradius 21.7021
rwrist 8.83452
rhand -16.8589 21.4675
rfingers 7.12502
rthumb 9.37151 -8.30413
lclavicle -9.19379e-016 3.97569e-014
lhumerus -29.8632 5.14418 80.3733
lradius 27.677
lwrist 8.06251
lhand -27.8421 25.7344
lfingers 7.12502
lthumb -1.23345 55.7105
rfemur -9.66363 2.82692 32.0665
rtibia 26.3709
rfoot -10.9763 -5.3898
rtoes 3.87613
lfemur -15.06 3.60139 -14.7939
ltibia 66.2125
lfoot -1.54087 -6.83787
ltoes -3.92074
204
root 0.191288 18.207 11.738 -3.01597 -2.58683 -5.4633
lowerback 10.2741 0.226774 3.87883
upperback 0.386102 0.913482 2.84357
thorax -5.35411 0.387513 0.655887
lowerneck -16.2543 -2.64903 -1.77087
upperneck 22.346 -3.13202 -0.421876
head 9.79536 -1.65362 -0.262448
rclavicle -7.83957e-015 -9.93923e-015
rhumerus -29.9978 -24.1142 -75.2183
rradius 21.9817
rwrist 7.44352
rhand -17.1316 20.5447
rfingers 7.12502
rthumb 9.10833 -9.2386
lclavicle -7.83957e-015 -9.93923e-015
lhumerus -29.6887 4.83224 80.5535
lradius 27.2919
lwrist 8.09712
lhand -27.8021 25.7578
lfingers 7.12502
lthumb -1.19477 55.7342
rfemur -9.09696 2.9027 32.084
rtibia 26.5296
rfoot -11.7047 -5.35411
rtoes 5.85617
lfemur -16.3304 3.57952 -14.8354
ltibia 66.0544
lfoot -2.40157 -6.30493
ltoes -2.9483
205
root 0.186089 18.1974 11.8902 -2.94303 -2.68366 -5.46265
lowerback 10.2714 0.331119 3.90122
upperback 0.469602 1.04596 2.76097
thorax -5.26041 0.453034 0.537221
lowerneck -16.389 -2.70035 -1.64938
upperneck 22.3175 -3.23841 -0.401922
head 9.80905 -1.68958 -0.291446
rclavicle 9.16894e-015 3.97569e-015
rhumerus -29.3342 -23.4401 -75.8003
rradius 22.6879
rwrist 7.22529
rhand -16.9178 19.8432
rfingers 7.12502
rthumb 9.31467 -9.93097
lclavicle 9.16894e-015 3.97569e-015
lhumerus -29.6965 4.57965 80.671
lradius 27.0804
lwrist 7.85614
lhand -27.6069 24.922
lfingers 7.12502
lthumb -1.0062 54.8994
rfemur -8.60329 3.41141 32.1199
rtibia 26.7898
rfoot -12.4461 -5.59001
rtoes 8.56619
lfemur -17.7156 3.62374 -14.8849
ltibia 65.7332
lfoot -3.27234 -5.71822
ltoes -4.22011
206
root 0.179471 18.1817 12.0425 -2.9221 -2.80224 -5.45993
lowerback 10.5149 0.415696 3.86693
upperback 0.440021 1.1683 2.7212
thorax -5.42579 0.510983 0.495111
lowerneck -16.6109 -2.68988 -1.67211
upperneck 22.3605 -3.22387 -0.356926
head 9.86721 -1.67869 -0.27391
rclavicle -1.48592e-014 -2.38542e-015
rhumerus -28.7852 -22.0456 -76.486
rradius 23.2693
rwrist 5.57865
rhand -17.5031 21.1698
rfingers 7.12502
rthumb 8.74985 -8.62882
lclavicle -1.48592e-014 -2.38542e-015
lhumerus -30.2391 4.56254 80.7215
lradius 27.4404
lwrist 7.41653
lhand -27.1411 23.4383
lfingers 7.12502
lthumb -0.556335 53.4174
rfemur -8.12195 4.04308 32.21
rtibia 27.0157
rfoot -13.0053 -5.97379
rtoes 12.1124
lfemur -18.8338 3.63189 -14.9272
ltibia 65.3076
lfoot -4.23788 -5.01255
ltoes -6.90447
